<svg xmlns="http://www.w3.org/2000/svg" viewBox="0 0 512 512" class="icon-preview">
    <defs>
        <linearGradient id="bg_light" x1="0%" y1="0%" x2="100%" y2="100%">
            <stop offset="0%" stop-color="#FF9A8B"></stop>
            <stop offset="50%" stop-color="#FF6A88"></stop>
            <stop offset="100%" stop-color="#FF99AC"></stop>
        </linearGradient>
        <filter id="glow" x="-20%" y="-20%" width="140%" height="140%">
            <feGaussianBlur stdDeviation="8" result="blur"></feGaussianBlur>
            <feComposite in="SourceGraphic" in2="blur" operator="over"></feComposite>
        </filter>
    </defs>
    <rect width="512" height="512" rx="115" fill="url(#bg_light)"></rect>
    <rect x="144" y="96" width="224" height="320" fill="#ffffff" opacity="0.3"></rect>
    <g fill="#ffffff" filter="url(#glow)">
        <rect x="208" y="144" width="32" height="32"></rect>
        <rect x="208" y="176" width="32" height="32"></rect>
        <rect x="240" y="176" width="32" height="32"></rect>
        <rect x="208" y="208" width="32" height="32"></rect>
        <rect x="240" y="208" width="32" height="32"></rect>
        <rect x="272" y="208" width="32" height="32"></rect>
        <rect x="208" y="240" width="32" height="32"></rect>
        <rect x="240" y="240" width="32" height="32"></rect>
        <rect x="272" y="240" width="32" height="32"></rect>
        <rect x="304" y="240" width="32" height="32"></rect>
        <rect x="208" y="272" width="32" height="32"></rect>
        <rect x="240" y="272" width="32" height="32"></rect>
        <rect x="272" y="272" width="32" height="32"></rect>
        <rect x="208" y="304" width="32" height="32"></rect>
        <rect x="240" y="304" width="32" height="32"></rect>
        <rect x="208" y="336" width="32" height="32"></rect>
    </g>
    <rect x="352" y="144" width="32" height="32" fill="#ffffff" opacity="0.8"></rect>
    <rect x="384" y="240" width="32" height="32" fill="#ffffff" opacity="0.8"></rect>
    <rect x="320" y="336" width="32" height="32" fill="#ffffff" opacity="0.8"></rect>
</svg>
